<?xml version="1.0" standalone="no"?>
<!DOCTYPE svg PUBLIC "-//W3C//DTD SVG 20010904//EN"
 "http://www.w3.org/TR/2001/REC-SVG-20010904/DTD/svg10.dtd">
<svg version="1.0" xmlns="http://www.w3.org/2000/svg"
 width="512.000000pt" height="512.000000pt" viewBox="0 0 512.000000 512.000000"
 preserveAspectRatio="xMidYMid meet">
<metadata>
Created by potrace 1.15, written by Peter Selinger 2001-2017
</metadata>
<g transform="translate(0.000000,512.000000) scale(0.100000,-0.100000)"
fill="#000000" stroke="none">
<path d="M220 4983 c-41 -7 -78 -24 -84 -39 -14 -35 15 -53 147 -89 31 -9 70
-27 85 -40 15 -12 43 -29 62 -37 19 -8 54 -30 76 -49 23 -19 55 -41 71 -50 16
-9 45 -38 63 -65 19 -27 49 -71 67 -98 18 -26 33 -55 33 -63 0 -8 17 -42 38
-76 l37 -60 3 -1701 c1 -1047 -1 -1725 -7 -1763 -6 -40 -19 -74 -34 -95 -14
-18 -33 -53 -43 -78 -10 -25 -36 -70 -59 -100 -23 -30 -47 -65 -54 -77 -6 -13
-37 -39 -69 -59 -31 -20 -72 -50 -90 -65 -18 -16 -41 -29 -52 -29 -10 0 -32
-12 -50 -26 -17 -15 -65 -40 -108 -56 -42 -17 -83 -35 -90 -40 -19 -16 -14
-56 7 -68 14 -7 739 -10 2274 -10 2205 0 2255 0 2278 19 l24 19 7 769 c3 422
9 791 13 820 6 44 4 54 -14 72 -12 12 -29 21 -40 21 -23 0 -71 -37 -71 -54 0
-33 -40 -128 -66 -158 -65 -74 -161 -161 -194 -175 -19 -8 -53 -28 -75 -44
-22 -15 -62 -33 -90 -39 -27 -6 -79 -27 -113 -47 -54 -29 -79 -37 -160 -45
-54 -5 -464 -13 -912 -17 -770 -6 -817 -6 -857 11 -58 25 -68 47 -53 117 12
57 8 466 -5 578 -6 47 -5 53 17 65 18 10 183 14 833 18 l810 5 86 48 c84 46
125 83 208 186 34 43 91 205 91 259 0 14 -13 68 -30 121 -25 82 -39 109 -91
175 -39 48 -78 85 -103 98 -23 11 -53 31 -68 44 -43 35 -109 42 -433 48 l-300
5 -100 31 c-55 17 -133 33 -175 37 -75 6 -135 27 -160 58 -7 9 -27 22 -44 29
-17 7 -52 29 -78 49 -25 20 -59 42 -75 51 -31 16 -116 110 -155 171 -14 22
-40 57 -57 79 -17 21 -36 57 -42 79 -6 22 -26 61 -44 88 -28 41 -34 61 -40
126 -3 43 -13 128 -22 188 -16 114 -15 175 8 505 15 225 24 276 54 321 37 52
28 74 -37 94 -45 13 -176 15 -987 14 -515 -1 -947 -4 -961 -6z"/>
<path d="M3290 4856 c-132 -50 -161 -64 -224 -117 -79 -65 -101 -93 -153 -200
-33 -66 -37 -83 -37 -154 0 -71 4 -90 39 -168 53 -123 135 -208 282 -291 33
-19 133 -28 378 -35 266 -8 272 -8 422 -45 161 -40 146 -33 353 -169 120 -79
243 -230 283 -349 19 -54 26 -63 49 -66 20 -2 31 4 45 24 17 27 18 70 18 764
0 790 0 785 -51 809 -39 17 -1357 15 -1404 -3z"/>
</g>
</svg>
